# xmcd CD database file generated by Grip 3.3.1
#
# Track frame offsets:
#       150
#       14854
#       26066
#       37161
#       47762
#       58764
#       69512
#       80958
#
# Disc length: 1201 seconds
#
# Revision: 0
# Processed by: cddbd v1.5.2PL0 Copyright (c) Steve Scherf et al.
# Submitted via: Grip 3.3.1
#
DISCID=7704af08
DTITLE=Marty Allen - The Sun Sessions
DYEAR=2009
DGENRE=country
TTITLE0=Waiting for You Baby
TTITLE1=Don't Write Me No Letter
TTITLE2=Cry Cry Cry
TTITLE3=Find Me a Woman
TTITLE4=I Got a Dog
TTITLE5=Everybody's Trying to Be My Baby
TTITLE6=Hung It Up
TTITLE7=Riding These Rails
EXTD=
EXTT0=
EXTT1=
EXTT2=
EXTT3=
EXTT4=
EXTT5=
EXTT6=
EXTT7=
PLAYORDER=
